<?xml version="1.0" encoding="utf-8"?>
<svg xmlns="http://www.w3.org/2000/svg" fill="none" height="36" width="36">
  <g filter="url(#a)">
    <path d="M31.82 14.04a.79.79 0 0 1-1.3-.29l-.38-1.04a12.4 12.4 0 0 0-7.47-7.47l-1.04-.37a.79.79 0 1 1 .54-1.49l.6.22c4.2 1.51 7.5 4.82 9.01 9.02l.22.6c.1.28.03.6-.18.82Z" fill="url(#b)"/>
  </g>
  <g filter="url(#c)">
    <path d="M28.73 14.66a.8.8 0 0 1-1.3-.29l-.2-.53a9.61 9.61 0 0 0-5.7-5.7l-.52-.19a.8.8 0 1 1 .55-1.48l.35.13a11.59 11.59 0 0 1 6.87 6.87l.13.36a.8.8 0 0 1-.18.83Z" fill="url(#d)"/>
  </g>
  <g filter="url(#e)">
    <path d="M25.62 15.31a.63.63 0 0 1-1.08-.32 5.29 5.29 0 0 0-4.14-4.15.63.63 0 0 1-.33-1.07l.12-.12a.73.73 0 0 1 .66-.2 6.51 6.51 0 0 1 5.08 5.09.73.73 0 0 1-.2.65l-.11.12Z" fill="url(#f)"/>
  </g>
  <g filter="url(#g)">
    <path d="m9.38 5.68-2.2 2.2 4.93 4.16 1.87-1.45c.83-.65.9-1.87.16-2.61l-2.3-2.3a1.74 1.74 0 0 0-2.46 0Z" fill="url(#h)"/>
    <path d="m28.12 28.82 2.2-2.2c.68-.68.68-1.78 0-2.46l-2.3-2.3a1.74 1.74 0 0 0-2.6.16l-1.46 1.87 4.16 4.93Z" fill="url(#i)"/>
  </g>
  <g filter="url(#j)">
    <path d="M28.12 28.82a8.71 8.71 0 0 1-11.95.36l-4.95-4.4-4.4-4.95a8.71 8.71 0 0 1 .35-11.95l2.2-2.2a1.74 1.74 0 0 1 2.47 0l2.3 2.3c.74.74.66 1.96-.16 2.6l-1.87 1.46a2.61 2.61 0 0 0-.42 3.72l1.09 1.33a43.56 43.56 0 0 0 6.13 6.13l1.33 1.1c1.14.92 2.82.73 3.72-.43l1.45-1.87c.65-.83 1.87-.9 2.61-.16l2.3 2.3c.68.68.68 1.78 0 2.46l-2.2 2.2Z" fill="url(#k)"/>
  </g>
  <defs>
    <linearGradient gradientUnits="userSpaceOnUse" id="b" x1="20.29" x2="27.35" y1="4.62" y2=".04">
      <stop stop-color="#DDB9F9" stop-opacity="0"/>
      <stop offset="1" stop-color="#B488D7" stop-opacity=".7"/>
    </linearGradient>
    <linearGradient gradientUnits="userSpaceOnUse" id="d" x1="19.7" x2="25.63" y1="7.67" y2="3.98">
      <stop stop-color="#DDB9F9" stop-opacity="0"/>
      <stop offset="1" stop-color="#B488D7" stop-opacity=".7"/>
    </linearGradient>
    <linearGradient gradientUnits="userSpaceOnUse" id="f" x1="19.09" x2="25.17" y1="10.75" y2="7.72">
      <stop stop-color="#DDB9F9" stop-opacity="0"/>
      <stop offset="1" stop-color="#B488D7" stop-opacity=".7"/>
    </linearGradient>
    <linearGradient gradientUnits="userSpaceOnUse" id="h" x1="17.65" x2="21.08" y1="18.35" y2="14.92">
      <stop stop-color="#E3A9FE"/>
      <stop offset="1" stop-color="#635195"/>
    </linearGradient>
    <linearGradient gradientUnits="userSpaceOnUse" id="i" x1="17.65" x2="21.08" y1="18.35" y2="14.92">
      <stop stop-color="#E3A9FE"/>
      <stop offset="1" stop-color="#635195"/>
    </linearGradient>
    <linearGradient gradientUnits="userSpaceOnUse" id="k" x1=".28" x2="19.56" y1="14.77" y2="4.02">
      <stop stop-color="#DDB9F9" stop-opacity="0"/>
      <stop offset="1" stop-color="#B488D7"/>
    </linearGradient>
    <filter color-interpolation-filters="sRGB" filterUnits="userSpaceOnUse" height="12.94" id="a" width="12.94" x="20.11" y="2.34">
      <feFlood flood-opacity="0" result="BackgroundImageFix"/>
      <feBlend in="SourceGraphic" in2="BackgroundImageFix" result="shape"/>
      <feGaussianBlur result="effect1_foregroundBlur_986_3599" stdDeviation=".5"/>
    </filter>
    <filter color-interpolation-filters="sRGB" filterUnits="userSpaceOnUse" height="10.47" id="c" width="10.47" x="19.49" y="5.42">
      <feFlood flood-opacity="0" result="BackgroundImageFix"/>
      <feBlend in="SourceGraphic" in2="BackgroundImageFix" result="shape"/>
      <feGaussianBlur result="effect1_foregroundBlur_986_3599" stdDeviation=".5"/>
    </filter>
    <filter color-interpolation-filters="sRGB" filterUnits="userSpaceOnUse" height="8.06" id="e" width="8.06" x="18.88" y="8.44">
      <feFlood flood-opacity="0" result="BackgroundImageFix"/>
      <feBlend in="SourceGraphic" in2="BackgroundImageFix" result="shape"/>
      <feGaussianBlur result="effect1_foregroundBlur_986_3599" stdDeviation=".5"/>
    </filter>
    <filter color-interpolation-filters="sRGB" filterUnits="userSpaceOnUse" height="25.66" id="g" width="25.66" x="6.18" y="4.17">
      <feFlood flood-opacity="0" result="BackgroundImageFix"/>
      <feBlend in="SourceGraphic" in2="BackgroundImageFix" result="shape"/>
      <feGaussianBlur result="effect1_foregroundBlur_986_3599" stdDeviation=".5"/>
    </filter>
    <filter color-interpolation-filters="sRGB" filterUnits="userSpaceOnUse" height="28.21" id="j" width="28.21" x="3.62" y="4.17">
      <feFlood flood-opacity="0" result="BackgroundImageFix"/>
      <feBlend in="SourceGraphic" in2="BackgroundImageFix" result="shape"/>
      <feColorMatrix in="SourceAlpha" result="hardAlpha" values="0 0 0 0 0 0 0 0 0 0 0 0 0 0 0 0 0 0 127 0"/>
      <feOffset dx="1" dy="1"/>
      <feGaussianBlur stdDeviation="1"/>
      <feComposite in2="hardAlpha" k2="-1" k3="1" operator="arithmetic"/>
      <feColorMatrix values="0 0 0 0 0.895833 0 0 0 0 0.895833 0 0 0 0 0.895833 0 0 0 0.5 0"/>
      <feBlend in2="shape" result="effect1_innerShadow_986_3599"/>
      <feColorMatrix in="SourceAlpha" result="hardAlpha" values="0 0 0 0 0 0 0 0 0 0 0 0 0 0 0 0 0 0 127 0"/>
      <feOffset dx="-1" dy="-1"/>
      <feGaussianBlur stdDeviation="1"/>
      <feComposite in2="hardAlpha" k2="-1" k3="1" operator="arithmetic"/>
      <feColorMatrix values="0 0 0 0 0.894118 0 0 0 0 0.894118 0 0 0 0 0.894118 0 0 0 0.3 0"/>
      <feBlend in2="effect1_innerShadow_986_3599" result="effect2_innerShadow_986_3599"/>
    </filter>
  </defs>
</svg>