<?xml version="1.0" encoding="utf-8"?>
<svg xmlns="http://www.w3.org/2000/svg" fill="none" height="36" width="36">
  <g filter="url(#a)">
    <path clip-rule="evenodd" d="M20.48 4.67c-.45.97-.45 2.43-.45 4.82 0 3.05 0 4.58.95 5.53.95.95 2.48.95 5.53.95 2.4 0 3.85 0 4.82-.45.45-.98.45-2.43.45-4.82 0-3.06 0-4.59-.95-5.54-.95-.95-2.47-.95-5.53-.95-2.39 0-3.85 0-4.82.46Z" fill="url(#b)" fill-rule="evenodd"/>
  </g>
  <g filter="url(#c)">
    <path d="M30 3h-6.97a3 3 0 0 0-3 3v6.97a3 3 0 0 0 3 3H30a3 3 0 0 0 3-3V6a3 3 0 0 0-3-3Z" fill="url(#d)"/>
  </g>
  <g filter="url(#e)">
    <path clip-rule="evenodd" d="M20.48 4.67c-.45.97-.45 2.43-.45 4.82 0 3.05 0 4.58.95 5.53.95.95 2.48.95 5.53.95 2.39 0 3.85 0 4.82-.45-.13.27-.29.51-.5.72-.95.95-2.48.95-5.53.95-3.06 0-4.59 0-5.54-.95-.95-.95-.95-2.48-.95-5.54s0-4.58.95-5.53c.2-.21.44-.38.72-.5Z" fill="url(#f)" fill-rule="evenodd"/>
  </g>
  <g filter="url(#g)">
    <path clip-rule="evenodd" d="M15.52 4.67c.45.97.45 2.43.45 4.82 0 3.05 0 4.58-.95 5.53-.95.95-2.48.95-5.53.95-2.39 0-3.85 0-4.82-.45-.45-.98-.45-2.43-.45-4.82 0-3.06 0-4.59.95-5.54.95-.95 2.48-.95 5.53-.95 2.4 0 3.85 0 4.82.46Z" fill="url(#h)" fill-rule="evenodd"/>
  </g>
  <g filter="url(#i)">
    <path d="M6 3h6.97a3 3 0 0 1 3 3v6.97a3 3 0 0 1-3 3H6a3 3 0 0 1-3-3V6a3 3 0 0 1 3-3Z" fill="url(#j)"/>
  </g>
  <g filter="url(#k)">
    <path clip-rule="evenodd" d="M15.52 4.67c.45.97.45 2.43.45 4.82 0 3.05 0 4.58-.95 5.53-.95.95-2.48.95-5.53.95-2.4 0-3.85 0-4.82-.45.12.27.29.51.5.72.95.95 2.47.95 5.53.95s4.59 0 5.54-.95c.95-.95.95-2.48.95-5.54s0-4.58-.95-5.53c-.2-.21-.45-.38-.72-.5Z" fill="url(#l)" fill-rule="evenodd"/>
  </g>
  <g filter="url(#m)">
    <path clip-rule="evenodd" d="M15.52 31.33c.45-.97.45-2.43.45-4.82 0-3.05 0-4.58-.95-5.53-.95-.95-2.48-.95-5.53-.95-2.39 0-3.85 0-4.82.45-.45.97-.45 2.43-.45 4.82 0 3.06 0 4.58.95 5.53.95.95 2.48.95 5.53.95 2.4 0 3.85 0 4.82-.45Z" fill="url(#n)" fill-rule="evenodd"/>
  </g>
  <g filter="url(#o)">
    <path d="M6 33h6.97a3 3 0 0 0 3-3v-6.97a3 3 0 0 0-3-3H6a3 3 0 0 0-3 3V30a3 3 0 0 0 3 3Z" fill="url(#p)"/>
  </g>
  <g filter="url(#q)">
    <path clip-rule="evenodd" d="M15.52 31.33c.45-.97.45-2.43.45-4.82 0-3.05 0-4.58-.95-5.53-.95-.95-2.48-.95-5.53-.95-2.4 0-3.85 0-4.82.45.12-.28.29-.51.5-.72.95-.95 2.47-.95 5.53-.95s4.59 0 5.54.95c.95.95.95 2.48.95 5.54 0 3.05 0 4.58-.95 5.53-.2.21-.45.37-.72.5Z" fill="url(#r)" fill-rule="evenodd"/>
  </g>
  <g filter="url(#s)">
    <path clip-rule="evenodd" d="M20.48 31.33c-.45-.97-.45-2.43-.45-4.82 0-3.05 0-4.58.95-5.53.95-.95 2.48-.95 5.53-.95 2.4 0 3.85 0 4.82.45.45.97.45 2.43.45 4.82 0 3.06 0 4.58-.95 5.53-.95.95-2.47.95-5.53.95-2.39 0-3.85 0-4.82-.45Z" fill="url(#t)" fill-rule="evenodd"/>
  </g>
  <g filter="url(#u)">
    <path d="M30 33h-6.97a3 3 0 0 1-3-3v-6.97a3 3 0 0 1 3-3H30a3 3 0 0 1 3 3V30a3 3 0 0 1-3 3Z" fill="url(#v)"/>
  </g>
  <g filter="url(#w)">
    <path clip-rule="evenodd" d="M20.48 31.33c-.45-.97-.45-2.43-.45-4.82 0-3.05 0-4.58.95-5.53.95-.95 2.48-.95 5.53-.95 2.39 0 3.85 0 4.82.45a2.46 2.46 0 0 0-.5-.72c-.95-.95-2.48-.95-5.53-.95-3.06 0-4.59 0-5.54.95-.95.95-.95 2.48-.95 5.54 0 3.05 0 4.58.95 5.53.2.21.44.37.72.5Z" fill="url(#x)" fill-rule="evenodd"/>
  </g>
  <defs>
    <linearGradient gradientUnits="userSpaceOnUse" id="b" x1="25.91" x2="25.91" y1="4.22" y2="15.97">
      <stop stop-color="#E3A9FE"/>
      <stop offset="1" stop-color="#635195"/>
    </linearGradient>
    <linearGradient gradientUnits="userSpaceOnUse" id="d" x1="33" x2="23.55" y1="2.38" y2="18.04">
      <stop stop-color="#DDB9F9" stop-opacity="0"/>
      <stop offset="1" stop-color="#B488D7" stop-opacity=".7"/>
    </linearGradient>
    <linearGradient gradientUnits="userSpaceOnUse" id="f" x1="25.07" x2="25.07" y1="4.67" y2="17.19">
      <stop stop-color="#E3A9FE"/>
      <stop offset="1" stop-color="#635195"/>
    </linearGradient>
    <linearGradient gradientUnits="userSpaceOnUse" id="h" x1="10.1" x2="10.1" y1="4.22" y2="15.97">
      <stop stop-color="#E3A9FE"/>
      <stop offset="1" stop-color="#635195"/>
    </linearGradient>
    <linearGradient gradientUnits="userSpaceOnUse" id="j" x1="3" x2="12.45" y1="2.38" y2="18.04">
      <stop stop-color="#DDB9F9" stop-opacity="0"/>
      <stop offset="1" stop-color="#B488D7" stop-opacity=".7"/>
    </linearGradient>
    <linearGradient gradientUnits="userSpaceOnUse" id="l" x1="10.93" x2="10.93" y1="4.67" y2="17.19">
      <stop stop-color="#E3A9FE"/>
      <stop offset="1" stop-color="#635195"/>
    </linearGradient>
    <linearGradient gradientUnits="userSpaceOnUse" id="n" x1="10.1" x2="10.1" y1="31.78" y2="20.03">
      <stop stop-color="#E3A9FE"/>
      <stop offset="1" stop-color="#635195"/>
    </linearGradient>
    <linearGradient gradientUnits="userSpaceOnUse" id="p" x1="3" x2="12.45" y1="33.62" y2="17.96">
      <stop stop-color="#DDB9F9" stop-opacity="0"/>
      <stop offset="1" stop-color="#B488D7" stop-opacity=".7"/>
    </linearGradient>
    <linearGradient gradientUnits="userSpaceOnUse" id="r" x1="10.93" x2="10.93" y1="31.33" y2="18.81">
      <stop stop-color="#E3A9FE"/>
      <stop offset="1" stop-color="#635195"/>
    </linearGradient>
    <linearGradient gradientUnits="userSpaceOnUse" id="t" x1="25.91" x2="25.91" y1="31.78" y2="20.03">
      <stop stop-color="#E3A9FE"/>
      <stop offset="1" stop-color="#635195"/>
    </linearGradient>
    <linearGradient gradientUnits="userSpaceOnUse" id="v" x1="33" x2="23.55" y1="33.62" y2="17.96">
      <stop stop-color="#DDB9F9" stop-opacity="0"/>
      <stop offset="1" stop-color="#B488D7" stop-opacity=".7"/>
    </linearGradient>
    <linearGradient gradientUnits="userSpaceOnUse" id="x" x1="25.07" x2="25.07" y1="31.33" y2="18.81">
      <stop stop-color="#E3A9FE"/>
      <stop offset="1" stop-color="#635195"/>
    </linearGradient>
    <filter color-interpolation-filters="sRGB" filterUnits="userSpaceOnUse" height="13.76" id="a" width="13.76" x="19.03" y="3.21">
      <feFlood flood-opacity="0" result="BackgroundImageFix"/>
      <feBlend in="SourceGraphic" in2="BackgroundImageFix" result="shape"/>
      <feGaussianBlur result="effect1_foregroundBlur_122_668" stdDeviation=".5"/>
    </filter>
    <filter color-interpolation-filters="sRGB" filterUnits="userSpaceOnUse" height="16.97" id="c" width="16.97" x="18.03" y="1">
      <feFlood flood-opacity="0" result="BackgroundImageFix"/>
      <feBlend in="SourceGraphic" in2="BackgroundImageFix" result="shape"/>
      <feColorMatrix in="SourceAlpha" result="hardAlpha" values="0 0 0 0 0 0 0 0 0 0 0 0 0 0 0 0 0 0 127 0"/>
      <feOffset dx="2" dy="2"/>
      <feGaussianBlur stdDeviation="2"/>
      <feComposite in2="hardAlpha" k2="-1" k3="1" operator="arithmetic"/>
      <feColorMatrix values="0 0 0 0 0.895833 0 0 0 0 0.895833 0 0 0 0 0.895833 0 0 0 0.5 0"/>
      <feBlend in2="shape" result="effect1_innerShadow_122_668"/>
      <feColorMatrix in="SourceAlpha" result="hardAlpha" values="0 0 0 0 0 0 0 0 0 0 0 0 0 0 0 0 0 0 127 0"/>
      <feOffset dx="-2" dy="-2"/>
      <feGaussianBlur stdDeviation="2"/>
      <feComposite in2="hardAlpha" k2="-1" k3="1" operator="arithmetic"/>
      <feColorMatrix values="0 0 0 0 0.894118 0 0 0 0 0.894118 0 0 0 0 0.894118 0 0 0 0.3 0"/>
      <feBlend in2="effect1_innerShadow_122_668" result="effect2_innerShadow_122_668"/>
    </filter>
    <filter color-interpolation-filters="sRGB" filterUnits="userSpaceOnUse" height="14.52" id="e" width="14.52" x="17.81" y="3.67">
      <feFlood flood-opacity="0" result="BackgroundImageFix"/>
      <feBlend in="SourceGraphic" in2="BackgroundImageFix" result="shape"/>
      <feColorMatrix in="SourceAlpha" result="hardAlpha" values="0 0 0 0 0 0 0 0 0 0 0 0 0 0 0 0 0 0 127 0"/>
      <feOffset dx="1" dy="1"/>
      <feGaussianBlur stdDeviation="1"/>
      <feComposite in2="hardAlpha" k2="-1" k3="1" operator="arithmetic"/>
      <feColorMatrix values="0 0 0 0 0.895833 0 0 0 0 0.895833 0 0 0 0 0.895833 0 0 0 0.5 0"/>
      <feBlend in2="shape" result="effect1_innerShadow_122_668"/>
      <feColorMatrix in="SourceAlpha" result="hardAlpha" values="0 0 0 0 0 0 0 0 0 0 0 0 0 0 0 0 0 0 127 0"/>
      <feOffset dx="-1" dy="-1"/>
      <feGaussianBlur stdDeviation="1"/>
      <feComposite in2="hardAlpha" k2="-1" k3="1" operator="arithmetic"/>
      <feColorMatrix values="0 0 0 0 0.894118 0 0 0 0 0.894118 0 0 0 0 0.894118 0 0 0 0.3 0"/>
      <feBlend in2="effect1_innerShadow_122_668" result="effect2_innerShadow_122_668"/>
    </filter>
    <filter color-interpolation-filters="sRGB" filterUnits="userSpaceOnUse" height="13.76" id="g" width="13.76" x="3.22" y="3.21">
      <feFlood flood-opacity="0" result="BackgroundImageFix"/>
      <feBlend in="SourceGraphic" in2="BackgroundImageFix" result="shape"/>
      <feGaussianBlur result="effect1_foregroundBlur_122_668" stdDeviation=".5"/>
    </filter>
    <filter color-interpolation-filters="sRGB" filterUnits="userSpaceOnUse" height="16.97" id="i" width="16.97" x="1" y="1">
      <feFlood flood-opacity="0" result="BackgroundImageFix"/>
      <feBlend in="SourceGraphic" in2="BackgroundImageFix" result="shape"/>
      <feColorMatrix in="SourceAlpha" result="hardAlpha" values="0 0 0 0 0 0 0 0 0 0 0 0 0 0 0 0 0 0 127 0"/>
      <feOffset dx="2" dy="2"/>
      <feGaussianBlur stdDeviation="2"/>
      <feComposite in2="hardAlpha" k2="-1" k3="1" operator="arithmetic"/>
      <feColorMatrix values="0 0 0 0 0.895833 0 0 0 0 0.895833 0 0 0 0 0.895833 0 0 0 0.5 0"/>
      <feBlend in2="shape" result="effect1_innerShadow_122_668"/>
      <feColorMatrix in="SourceAlpha" result="hardAlpha" values="0 0 0 0 0 0 0 0 0 0 0 0 0 0 0 0 0 0 127 0"/>
      <feOffset dx="-2" dy="-2"/>
      <feGaussianBlur stdDeviation="2"/>
      <feComposite in2="hardAlpha" k2="-1" k3="1" operator="arithmetic"/>
      <feColorMatrix values="0 0 0 0 0.894118 0 0 0 0 0.894118 0 0 0 0 0.894118 0 0 0 0.3 0"/>
      <feBlend in2="effect1_innerShadow_122_668" result="effect2_innerShadow_122_668"/>
    </filter>
    <filter color-interpolation-filters="sRGB" filterUnits="userSpaceOnUse" height="14.52" id="k" width="14.52" x="3.67" y="3.67">
      <feFlood flood-opacity="0" result="BackgroundImageFix"/>
      <feBlend in="SourceGraphic" in2="BackgroundImageFix" result="shape"/>
      <feColorMatrix in="SourceAlpha" result="hardAlpha" values="0 0 0 0 0 0 0 0 0 0 0 0 0 0 0 0 0 0 127 0"/>
      <feOffset dx="1" dy="1"/>
      <feGaussianBlur stdDeviation="1"/>
      <feComposite in2="hardAlpha" k2="-1" k3="1" operator="arithmetic"/>
      <feColorMatrix values="0 0 0 0 0.895833 0 0 0 0 0.895833 0 0 0 0 0.895833 0 0 0 0.5 0"/>
      <feBlend in2="shape" result="effect1_innerShadow_122_668"/>
      <feColorMatrix in="SourceAlpha" result="hardAlpha" values="0 0 0 0 0 0 0 0 0 0 0 0 0 0 0 0 0 0 127 0"/>
      <feOffset dx="-1" dy="-1"/>
      <feGaussianBlur stdDeviation="1"/>
      <feComposite in2="hardAlpha" k2="-1" k3="1" operator="arithmetic"/>
      <feColorMatrix values="0 0 0 0 0.894118 0 0 0 0 0.894118 0 0 0 0 0.894118 0 0 0 0.3 0"/>
      <feBlend in2="effect1_innerShadow_122_668" result="effect2_innerShadow_122_668"/>
    </filter>
    <filter color-interpolation-filters="sRGB" filterUnits="userSpaceOnUse" height="13.76" id="m" width="13.76" x="3.22" y="19.03">
      <feFlood flood-opacity="0" result="BackgroundImageFix"/>
      <feBlend in="SourceGraphic" in2="BackgroundImageFix" result="shape"/>
      <feGaussianBlur result="effect1_foregroundBlur_122_668" stdDeviation=".5"/>
    </filter>
    <filter color-interpolation-filters="sRGB" filterUnits="userSpaceOnUse" height="16.97" id="o" width="16.97" x="1" y="18.03">
      <feFlood flood-opacity="0" result="BackgroundImageFix"/>
      <feBlend in="SourceGraphic" in2="BackgroundImageFix" result="shape"/>
      <feColorMatrix in="SourceAlpha" result="hardAlpha" values="0 0 0 0 0 0 0 0 0 0 0 0 0 0 0 0 0 0 127 0"/>
      <feOffset dx="2" dy="2"/>
      <feGaussianBlur stdDeviation="2"/>
      <feComposite in2="hardAlpha" k2="-1" k3="1" operator="arithmetic"/>
      <feColorMatrix values="0 0 0 0 0.895833 0 0 0 0 0.895833 0 0 0 0 0.895833 0 0 0 0.5 0"/>
      <feBlend in2="shape" result="effect1_innerShadow_122_668"/>
      <feColorMatrix in="SourceAlpha" result="hardAlpha" values="0 0 0 0 0 0 0 0 0 0 0 0 0 0 0 0 0 0 127 0"/>
      <feOffset dx="-2" dy="-2"/>
      <feGaussianBlur stdDeviation="2"/>
      <feComposite in2="hardAlpha" k2="-1" k3="1" operator="arithmetic"/>
      <feColorMatrix values="0 0 0 0 0.894118 0 0 0 0 0.894118 0 0 0 0 0.894118 0 0 0 0.3 0"/>
      <feBlend in2="effect1_innerShadow_122_668" result="effect2_innerShadow_122_668"/>
    </filter>
    <filter color-interpolation-filters="sRGB" filterUnits="userSpaceOnUse" height="14.52" id="q" width="14.52" x="3.67" y="17.81">
      <feFlood flood-opacity="0" result="BackgroundImageFix"/>
      <feBlend in="SourceGraphic" in2="BackgroundImageFix" result="shape"/>
      <feColorMatrix in="SourceAlpha" result="hardAlpha" values="0 0 0 0 0 0 0 0 0 0 0 0 0 0 0 0 0 0 127 0"/>
      <feOffset dx="1" dy="1"/>
      <feGaussianBlur stdDeviation="1"/>
      <feComposite in2="hardAlpha" k2="-1" k3="1" operator="arithmetic"/>
      <feColorMatrix values="0 0 0 0 0.895833 0 0 0 0 0.895833 0 0 0 0 0.895833 0 0 0 0.5 0"/>
      <feBlend in2="shape" result="effect1_innerShadow_122_668"/>
      <feColorMatrix in="SourceAlpha" result="hardAlpha" values="0 0 0 0 0 0 0 0 0 0 0 0 0 0 0 0 0 0 127 0"/>
      <feOffset dx="-1" dy="-1"/>
      <feGaussianBlur stdDeviation="1"/>
      <feComposite in2="hardAlpha" k2="-1" k3="1" operator="arithmetic"/>
      <feColorMatrix values="0 0 0 0 0.894118 0 0 0 0 0.894118 0 0 0 0 0.894118 0 0 0 0.3 0"/>
      <feBlend in2="effect1_innerShadow_122_668" result="effect2_innerShadow_122_668"/>
    </filter>
    <filter color-interpolation-filters="sRGB" filterUnits="userSpaceOnUse" height="13.76" id="s" width="13.76" x="19.03" y="19.03">
      <feFlood flood-opacity="0" result="BackgroundImageFix"/>
      <feBlend in="SourceGraphic" in2="BackgroundImageFix" result="shape"/>
      <feGaussianBlur result="effect1_foregroundBlur_122_668" stdDeviation=".5"/>
    </filter>
    <filter color-interpolation-filters="sRGB" filterUnits="userSpaceOnUse" height="16.97" id="u" width="16.97" x="18.03" y="18.03">
      <feFlood flood-opacity="0" result="BackgroundImageFix"/>
      <feBlend in="SourceGraphic" in2="BackgroundImageFix" result="shape"/>
      <feColorMatrix in="SourceAlpha" result="hardAlpha" values="0 0 0 0 0 0 0 0 0 0 0 0 0 0 0 0 0 0 127 0"/>
      <feOffset dx="2" dy="2"/>
      <feGaussianBlur stdDeviation="2"/>
      <feComposite in2="hardAlpha" k2="-1" k3="1" operator="arithmetic"/>
      <feColorMatrix values="0 0 0 0 0.895833 0 0 0 0 0.895833 0 0 0 0 0.895833 0 0 0 0.5 0"/>
      <feBlend in2="shape" result="effect1_innerShadow_122_668"/>
      <feColorMatrix in="SourceAlpha" result="hardAlpha" values="0 0 0 0 0 0 0 0 0 0 0 0 0 0 0 0 0 0 127 0"/>
      <feOffset dx="-2" dy="-2"/>
      <feGaussianBlur stdDeviation="2"/>
      <feComposite in2="hardAlpha" k2="-1" k3="1" operator="arithmetic"/>
      <feColorMatrix values="0 0 0 0 0.894118 0 0 0 0 0.894118 0 0 0 0 0.894118 0 0 0 0.3 0"/>
      <feBlend in2="effect1_innerShadow_122_668" result="effect2_innerShadow_122_668"/>
    </filter>
    <filter color-interpolation-filters="sRGB" filterUnits="userSpaceOnUse" height="14.52" id="w" width="14.52" x="17.81" y="17.81">
      <feFlood flood-opacity="0" result="BackgroundImageFix"/>
      <feBlend in="SourceGraphic" in2="BackgroundImageFix" result="shape"/>
      <feColorMatrix in="SourceAlpha" result="hardAlpha" values="0 0 0 0 0 0 0 0 0 0 0 0 0 0 0 0 0 0 127 0"/>
      <feOffset dx="1" dy="1"/>
      <feGaussianBlur stdDeviation="1"/>
      <feComposite in2="hardAlpha" k2="-1" k3="1" operator="arithmetic"/>
      <feColorMatrix values="0 0 0 0 0.895833 0 0 0 0 0.895833 0 0 0 0 0.895833 0 0 0 0.5 0"/>
      <feBlend in2="shape" result="effect1_innerShadow_122_668"/>
      <feColorMatrix in="SourceAlpha" result="hardAlpha" values="0 0 0 0 0 0 0 0 0 0 0 0 0 0 0 0 0 0 127 0"/>
      <feOffset dx="-1" dy="-1"/>
      <feGaussianBlur stdDeviation="1"/>
      <feComposite in2="hardAlpha" k2="-1" k3="1" operator="arithmetic"/>
      <feColorMatrix values="0 0 0 0 0.894118 0 0 0 0 0.894118 0 0 0 0 0.894118 0 0 0 0.3 0"/>
      <feBlend in2="effect1_innerShadow_122_668" result="effect2_innerShadow_122_668"/>
    </filter>
  </defs>
</svg>