<?xml version="1.0" encoding="utf-8"?>
<svg xmlns="http://www.w3.org/2000/svg" fill="none" height="36" width="36">
  <g filter="url(#a)">
    <path d="M23.77 23.15a7 7 0 0 0-1.68-2.32l-.59-.54a.16.16 0 0 0-.22 0 .16.16 0 0 0-.04.07l-.26.75c-.17.47-.47.95-.9 1.42a.13.13 0 0 1-.08.04c-.02 0-.06 0-.09-.03a.12.12 0 0 1-.04-.1 7.73 7.73 0 0 0-1.08-4.06 7.19 7.19 0 0 0-2.73-2.87l-.83-.49a.16.16 0 0 0-.25.15l.05.96a4.4 4.4 0 0 1-.23 1.73 5.73 5.73 0 0 1-1.91 2.57 6.96 6.96 0 0 0 1.6 12.02 7.16 7.16 0 0 0 7.8-1.5 6.96 6.96 0 0 0 1.48-7.8Z" fill="url(#b)"/>
  </g>
  <g filter="url(#c)">
    <path d="M21.48 32.98a8.18 8.18 0 0 0 4.02-7A8.02 8.02 0 0 0 22.85 20l-.6-.55a1.29 1.29 0 0 0-1.74.03c-.2-.54-.44-1.08-.73-1.63a8.31 8.31 0 0 0-3.15-3.3l-.83-.5a1.29 1.29 0 0 0-1.94 1.17l.02.15.03.82c.02.54-.05.97-.16 1.28a4.6 4.6 0 0 1-1.55 2.07 8.09 8.09 0 0 0-2.55 9.62 8.15 8.15 0 0 0 3.4 3.83 5.6 5.6 0 0 1-2.46-.74c-5.34-3.2-6.74-6.32-5.84-10.47.32-1.47.96-2.81 1.59-4.15.79-1.67 1.57-3.31 1.7-5.15 1 1.74 1.41 3 1.52 4.81A23.15 23.15 0 0 0 14.96 3s8.3 4.65 8.84 11.67c.7-1.44 1.07-3.74.35-5.23 2.08 1.45 13.97 13.98-.37 22.8-.7.43-1.49.66-2.3.74Z" fill="url(#d)"/>
  </g>
  <defs>
    <linearGradient gradientUnits="userSpaceOnUse" id="b" x1="17.25" x2="17.25" y1="15" y2="33">
      <stop stop-color="#E3A9FE"/>
      <stop offset="1" stop-color="#635195"/>
    </linearGradient>
    <linearGradient gradientUnits="userSpaceOnUse" id="d" x1="30.75" x2="7.68" y1="1.57" y2="35.04">
      <stop stop-color="#DDB9F9" stop-opacity="0"/>
      <stop offset="1" stop-color="#B488D7" stop-opacity=".7"/>
    </linearGradient>
    <filter color-interpolation-filters="sRGB" filterUnits="userSpaceOnUse" height="20" id="a" width="16.25" x="9.13" y="14">
      <feFlood flood-opacity="0" result="BackgroundImageFix"/>
      <feBlend in="SourceGraphic" in2="BackgroundImageFix" result="shape"/>
      <feColorMatrix in="SourceAlpha" result="hardAlpha" values="0 0 0 0 0 0 0 0 0 0 0 0 0 0 0 0 0 0 127 0"/>
      <feOffset dx="1" dy="1"/>
      <feGaussianBlur stdDeviation="1"/>
      <feComposite in2="hardAlpha" k2="-1" k3="1" operator="arithmetic"/>
      <feColorMatrix values="0 0 0 0 0.895833 0 0 0 0 0.895833 0 0 0 0 0.895833 0 0 0 0.5 0"/>
      <feBlend in2="shape" result="effect1_innerShadow_122_658"/>
      <feColorMatrix in="SourceAlpha" result="hardAlpha" values="0 0 0 0 0 0 0 0 0 0 0 0 0 0 0 0 0 0 127 0"/>
      <feOffset dx="-1" dy="-1"/>
      <feGaussianBlur stdDeviation="1"/>
      <feComposite in2="hardAlpha" k2="-1" k3="1" operator="arithmetic"/>
      <feColorMatrix values="0 0 0 0 0.894118 0 0 0 0 0.894118 0 0 0 0 0.894118 0 0 0 0.3 0"/>
      <feBlend in2="effect1_innerShadow_122_658" result="effect2_innerShadow_122_658"/>
    </filter>
    <filter color-interpolation-filters="sRGB" filterUnits="userSpaceOnUse" height="33.99" id="c" width="30.25" x="2.5" y="1">
      <feFlood flood-opacity="0" result="BackgroundImageFix"/>
      <feBlend in="SourceGraphic" in2="BackgroundImageFix" result="shape"/>
      <feColorMatrix in="SourceAlpha" result="hardAlpha" values="0 0 0 0 0 0 0 0 0 0 0 0 0 0 0 0 0 0 127 0"/>
      <feOffset dx="2" dy="2"/>
      <feGaussianBlur stdDeviation="2"/>
      <feComposite in2="hardAlpha" k2="-1" k3="1" operator="arithmetic"/>
      <feColorMatrix values="0 0 0 0 0.895833 0 0 0 0 0.895833 0 0 0 0 0.895833 0 0 0 0.5 0"/>
      <feBlend in2="shape" result="effect1_innerShadow_122_658"/>
      <feColorMatrix in="SourceAlpha" result="hardAlpha" values="0 0 0 0 0 0 0 0 0 0 0 0 0 0 0 0 0 0 127 0"/>
      <feOffset dx="-2" dy="-2"/>
      <feGaussianBlur stdDeviation="2"/>
      <feComposite in2="hardAlpha" k2="-1" k3="1" operator="arithmetic"/>
      <feColorMatrix values="0 0 0 0 0.894118 0 0 0 0 0.894118 0 0 0 0 0.894118 0 0 0 0.3 0"/>
      <feBlend in2="effect1_innerShadow_122_658" result="effect2_innerShadow_122_658"/>
    </filter>
  </defs>
</svg>